<svg xmlns="http://www.w3.org/2000/svg" xmlns:xlink="http://www.w3.org/1999/xlink" viewBox="0,0,256,256" width="128px" height="128px" fill-rule="nonzero"><g fill="none" fill-rule="nonzero" stroke="none" stroke-width="none" stroke-linecap="none" stroke-linejoin="none" stroke-miterlimit="10" stroke-dasharray="" stroke-dashoffset="0" font-family="none" font-weight="none" font-size="none" text-anchor="none" style="mix-blend-mode: normal"><g transform="scale(2,2)"><path d="M86.2,104h-44.4c-9.8,0 -17.8,-8 -17.8,-17.8v-44.4c0,-9.8 8,-17.8 17.8,-17.8h44.4c9.8,0 17.8,8 17.8,17.8v44.4c0,9.8 -8,17.8 -17.8,17.8z" fill-opacity="0.4902" fill="#ffffff" stroke="none" stroke-width="1" stroke-linecap="butt" stroke-linejoin="miter"></path><path d="M86.2,104h-44.4c-9.8,0 -17.8,-8 -17.8,-17.8v-44.4c0,-9.8 8,-17.8 17.8,-17.8h44.4c9.8,0 17.8,8 17.8,17.8v44.4c0,9.8 -8,17.8 -17.8,17.8z" fill-opacity="0.4902" fill="#ffffff" stroke="none" stroke-width="1" stroke-linecap="butt" stroke-linejoin="miter"></path><path d="M24,41.8v14.7c14.5,-11.1 41.2,-24.9 79.5,-19c-2,-7.8 -8.9,-13.5 -17.3,-13.5h-44.4c-9.8,0 -17.8,8 -17.8,17.8z" fill="#000000" stroke="none" stroke-width="1" stroke-linecap="butt" stroke-linejoin="miter"></path><path d="M53.5,49v30l26,-15z" fill="#000000" stroke="none" stroke-width="1" stroke-linecap="butt" stroke-linejoin="miter"></path><path d="M86.2,104h-44.4c-9.8,0 -17.8,-8 -17.8,-17.8v-44.4c0,-9.8 8,-17.8 17.8,-17.8h44.4c9.8,0 17.8,8 17.8,17.8v44.4c0,9.8 -8,17.8 -17.8,17.8z" fill="none" stroke-opacity="0.98824" stroke="#ffffff" stroke-width="6" stroke-linecap="round" stroke-linejoin="round"></path></g></g></svg>